<?xml version="1.0" standalone="no"?>
<!DOCTYPE svg PUBLIC "-//W3C//DTD SVG 20010904//EN"
 "http://www.w3.org/TR/2001/REC-SVG-20010904/DTD/svg10.dtd">
<svg version="1.0" xmlns="http://www.w3.org/2000/svg"
 width="261.000000pt" height="261.000000pt" viewBox="0 0 261.000000 261.000000"
 preserveAspectRatio="xMidYMid meet">
<metadata>
Created by potrace 1.11, written by Peter Selinger 2001-2013
</metadata>
<g transform="translate(0.000000,261.000000) scale(0.100000,-0.100000)"
fill="#000000" stroke="none">
<path d="M1135 2594 c-332 -43 -611 -197 -831 -459 -155 -183 -263 -432 -291
-672 -13 -107 -7 -298 12 -398 118 -613 643 -1052 1265 -1058 145 -2 219 7
345 40 363 95 659 334 831 672 39 76 86 199 99 259 3 12 7 32 11 45 26 108 36
303 21 437 -40 364 -257 719 -569 928 -112 76 -331 169 -441 187 -17 3 -39 8
-47 10 -73 21 -281 25 -405 9z m350 -104 c22 -5 56 -11 75 -14 108 -17 296
-99 424 -184 150 -101 330 -308 393 -454 10 -21 9 -27 -2 -32 -8 -3 -98 -4
-200 -3 l-185 3 0 -33 c0 -29 3 -33 25 -33 32 0 81 -24 88 -44 29 -74 -153
-297 -291 -357 -81 -35 -78 -41 -77 155 1 202 6 217 82 239 46 14 59 31 46 64
-5 12 -20 13 -82 7 -87 -8 -333 -8 -434 0 l-68 5 3 -34 c1 -25 7 -35 19 -35
38 0 76 -22 91 -53 13 -28 16 -86 15 -367 0 -187 -4 -347 -10 -363 -9 -27 -52
-57 -82 -57 -24 0 -94 70 -155 155 -86 119 -185 246 -227 292 -71 75 -69 66
-19 127 25 31 62 82 82 114 67 106 109 139 192 149 49 6 62 15 57 42 -2 9 -4
18 -4 21 -1 3 -97 5 -213 4 l-213 0 -1 -32 c-1 -25 3 -32 18 -32 33 0 86 -28
93 -49 21 -67 -141 -275 -265 -339 -109 -56 -106 -60 -105 136 1 134 5 173 18
198 16 31 58 54 98 54 15 0 19 8 19 35 l0 36 -62 -7 c-82 -8 -397 -8 -405 0
-8 8 36 91 95 180 60 91 217 247 307 307 138 92 268 148 438 188 80 19 352 27
422 11z m949 -784 c20 -48 53 -190 62 -266 8 -68 8 -230 0 -278 -3 -15 -8 -45
-11 -67 -3 -22 -14 -69 -24 -104 l-17 -64 -28 29 c-15 16 -66 83 -114 149 -90
124 -173 226 -223 274 -16 16 -29 32 -29 36 0 4 17 28 38 54 22 25 60 78 85
116 54 80 65 95 89 114 26 20 88 40 125 41 28 0 35 -5 47 -34z m-2218 -21 c21
-51 21 -693 -1 -734 -24 -48 -40 -45 -58 13 -37 116 -46 197 -43 371 3 145 8
184 30 269 15 54 29 103 32 107 11 18 25 8 40 -26z m1627 -483 c46 -44 163
-218 172 -254 7 -28 -15 -48 -53 -48 -15 0 -19 -8 -20 -36 l-1 -36 67 6 c63 6
392 9 398 4 5 -6 -66 -139 -112 -209 -61 -93 -217 -249 -313 -313 -138 -92
-303 -161 -443 -186 -35 -6 -74 -13 -88 -16 -38 -7 -238 -6 -295 1 -376 50
-706 273 -893 604 -23 40 -45 84 -48 97 -6 24 -6 24 77 25 144 2 241 0 321 -7
l78 -6 0 36 c0 31 -3 36 -24 36 -88 0 -109 42 -111 223 -1 130 0 137 18 137
21 0 79 -40 110 -75 9 -11 49 -67 88 -124 79 -117 83 -140 29 -157 -29 -10
-35 -16 -35 -40 0 -28 1 -29 50 -27 28 1 129 1 225 1 216 0 296 0 530 0 102 0
210 0 240 -1 50 -2 55 0 56 20 2 30 -6 38 -50 48 -70 18 -80 42 -81 214 l-1
150 36 -15 c19 -8 52 -32 73 -52z"/>
</g>
</svg>
